<?xml version="1.0" encoding="UTF-8" standalone="no"?>
<svg
   xmlns:dc="http://purl.org/dc/elements/1.1/"
   xmlns:cc="http://creativecommons.org/ns#"
   xmlns:rdf="http://www.w3.org/1999/02/22-rdf-syntax-ns#"
   xmlns:svg="http://www.w3.org/2000/svg"
   xmlns="http://www.w3.org/2000/svg"
   xmlns:sodipodi="http://sodipodi.sourceforge.net/DTD/sodipodi-0.dtd"
   xmlns:inkscape="http://www.inkscape.org/namespaces/inkscape"
   sodipodi:docname="lock.svg"
   inkscape:version="1.0alpha2 (1:0.92.0+devel+201906291917+02b75d8)"
   id="svg8"
   version="1.1"
   viewBox="0 0 7.9375001 9.9482302"
   height="37.599609"
   width="30.000002">
  <defs
     id="defs2" />
  <sodipodi:namedview
     inkscape:window-maximized="1"
     inkscape:window-y="0"
     inkscape:window-x="0"
     inkscape:window-height="1043"
     inkscape:window-width="1920"
     fit-margin-bottom="0"
     fit-margin-right="0"
     fit-margin-left="0"
     fit-margin-top="0"
     units="px"
     showgrid="false"
     inkscape:document-rotation="0"
     inkscape:current-layer="layer1"
     inkscape:document-units="px"
     inkscape:cy="22.255126"
     inkscape:cx="19.652388"
     inkscape:zoom="10.611289"
     inkscape:pageshadow="2"
     inkscape:pageopacity="0.0"
     borderopacity="1.0"
     bordercolor="#666666"
     pagecolor="#ffffff"
     id="base" />
  <metadata
     id="metadata5">
    <rdf:RDF>
      <cc:Work
         rdf:about="">
        <dc:format>image/svg+xml</dc:format>
        <dc:type
           rdf:resource="http://purl.org/dc/dcmitype/StillImage" />
        <dc:title></dc:title>
      </cc:Work>
    </rdf:RDF>
  </metadata>
  <g
     transform="translate(-2.4929687,-1.1401287)"
     id="layer1"
     inkscape:groupmode="layer"
     inkscape:label="Layer 1">
    <path
       inkscape:connector-curvature="0"
       d="m 4.6086018,1.1401287 c -0.723742,1e-7 -1.3218831,0.5986577 -1.3218831,1.3224 v 1.8577676 c -0.4675622,0.2035877 -0.79375,0.667612 -0.79375,1.2118123 v 4.2333333 c 0,0.7328961 0.5900208,1.3229171 1.3229166,1.3229171 h 5.2916666 c 0.7328958,0 1.3229171,-0.590021 1.3229171,-1.3229171 V 5.5321086 c 0,-0.5443632 -0.32648,-1.0083204 -0.7942672,-1.2118123 V 2.4625287 c 0,-0.7237423 -0.5986581,-1.3223999 -1.3223999,-1.3224 z m 0,1.0588502 h 3.7052001 c 0.155733,0 0.2635499,0.1078163 0.2635499,0.2635498 V 4.209192 H 4.345052 V 2.4625287 c 0,-0.1557335 0.1078166,-0.2635498 0.2635498,-0.2635498 z m 1.839681,3.8622964 a 0.79374999,0.79374999 0 0 1 0.013436,0 0.79374999,0.79374999 0 0 1 0.79375,0.79375 A 0.79374999,0.79374999 0 0 1 6.792448,7.5764281 V 8.9716919 H 6.1309895 V 7.5764281 A 0.79374999,0.79374999 0 0 1 5.6679686,6.8550253 0.79374999,0.79374999 0 0 1 6.4482828,6.0612753 Z"
       style="opacity:1;fill:#3e3e3e;fill-opacity:1;stroke:none;stroke-width:1.5875;stop-opacity:1"
       id="rect850" />
  </g>
</svg>
