<?xml version="1.0" encoding="UTF-8" standalone="no"?>
<svg
   xmlns:dc="http://purl.org/dc/elements/1.1/"
   xmlns:cc="http://creativecommons.org/ns#"
   xmlns:rdf="http://www.w3.org/1999/02/22-rdf-syntax-ns#"
   xmlns:svg="http://www.w3.org/2000/svg"
   xmlns="http://www.w3.org/2000/svg"
   xmlns:xlink="http://www.w3.org/1999/xlink"
   xmlns:sodipodi="http://sodipodi.sourceforge.net/DTD/sodipodi-0.dtd"
   xmlns:inkscape="http://www.inkscape.org/namespaces/inkscape"
   inkscape:version="1.0alpha2 (1:0.92.0+devel+201906291917+02b75d8)"
   sodipodi:docname="tux.svg"
   viewBox="0 0 200 200"
   height="200"
   width="200"
   version="1.1"
   id="svg3390">
  <sodipodi:namedview
     inkscape:current-layer="svg3390"
     inkscape:window-maximized="1"
     inkscape:window-y="0"
     inkscape:window-x="0"
     inkscape:cy="100"
     inkscape:cx="100"
     inkscape:zoom="3.1337688"
     fit-margin-bottom="0"
     fit-margin-right="0"
     fit-margin-left="0"
     fit-margin-top="0"
     showgrid="false"
     id="namedview13"
     inkscape:window-height="1043"
     inkscape:window-width="1920"
     inkscape:pageshadow="2"
     inkscape:pageopacity="0"
     guidetolerance="10"
     gridtolerance="10"
     objecttolerance="10"
     borderopacity="1"
     inkscape:document-rotation="0"
     bordercolor="#666666"
     pagecolor="#ffffff" />
  <metadata
     id="metadata3396">
    <rdf:RDF>
      <cc:Work
         rdf:about="">
        <dc:format>image/svg+xml</dc:format>
        <dc:type
           rdf:resource="http://purl.org/dc/dcmitype/StillImage" />
        <dc:title></dc:title>
      </cc:Work>
    </rdf:RDF>
  </metadata>
  <defs
     id="defs3394">
    <linearGradient
       id="linearGradient4267">
      <stop
         id="stop4269"
         offset="0"
         style="stop-color:#ffffff" />
      <stop
         id="stop4271"
         offset="1"
         style="stop-color:#e1e1e2" />
    </linearGradient>
    <linearGradient
       gradientTransform="translate(3.0517578e-6,3.0517578e-6)"
       gradientUnits="userSpaceOnUse"
       y2="180.4985"
       x2="98.826462"
       y1="41.901485"
       x1="98.023598"
       id="chest-gradient"
       xlink:href="#linearGradient4267" />
  </defs>
  <circle
     r="100"
     cy="100"
     cx="100"
     id="body"
     style="fill:#000000;fill-opacity:1;fill-rule:evenodd;stroke:none" />
  <path
     inkscape:connector-curvature="0"
     id="chest"
     d="m 124.86152,41.396243 c -5.20338,0.044 -10.42518,1.611467 -14.94662,4.886777 -3.17639,2.300958 -7.8224,7.713963 -9.09537,10.596653 -0.28224,0.63914 -1.019757,0.21913 -1.982617,-1.1291 C 94.996683,50.373293 89.588035,45.472385 85.457779,43.629378 79.361128,40.908912 69.808615,40.83014 64.080173,43.45223 c -5.673354,2.596877 -11.338957,8.138973 -13.688692,13.391653 -2.740012,6.12512 -2.76993,15.70268 -0.06621,21.18436 1.033985,2.0964 1.880634,4.06946 1.880634,4.38575 0,0.3163 -2.804624,3.43263 -6.232379,6.92486 -18.360023,18.705407 -20.413485,43.706727 -5.326957,64.848597 5.227002,7.32498 12.767547,13.31103 23.15446,18.38041 15.92387,7.77174 31.408604,10.06894 49.386631,7.3257 18.36246,-2.80192 34.59736,-11.15059 44.37998,-22.82165 4.83367,-5.76677 6.7139,-8.94285 9.43893,-15.94508 2.00397,-5.14937 2.31574,-7.22579 2.3727,-15.80551 0.0549,-8.25778 -0.26525,-10.83966 -1.95757,-15.7411 -2.61772,-7.58162 -9.2368,-17.426437 -15.27943,-22.726797 l -4.77941,-4.1925 2.00409,-3.79347 c 2.86246,-5.418 2.90492,-16.6417 0.0841,-22.36713 -4.78952,-9.721231 -14.6558,-15.188073 -24.58953,-15.10408 z"
     style="fill:url(#chest-gradient);fill-opacity:1;fill-rule:evenodd;stroke:none" />
  <path
     inkscape:connector-curvature="0"
     style="fill:#e0ac4f"
     d="m 95.593875,97.995333 c -4.744608,-5.62682 -10.812784,-9.47375 -21.865455,-13.86163 -5.078235,-2.01604 -9.233159,-4.14697 -9.233159,-4.73541 0,-1.44069 3.174056,-2.18605 5.516536,-1.29545 1.382079,0.52547 3.466512,0.0294 7.683715,-1.82854 14.946235,-6.58483 29.839258,-6.4696 45.236698,0.35001 3.59657,1.59295 5.26798,1.91692 6.85698,1.32912 2.30833,-0.85391 6.43362,0.4872 5.60798,1.82312 -0.26591,0.43027 -3.28311,1.8327 -6.70489,3.11651 -11.03363,4.13972 -17.94055,8.22898 -23.4991,13.91272 -2.88921,2.95428 -5.437597,5.371427 -5.663097,5.371427 -0.2255,0 -1.9968,-1.88184 -3.936208,-4.181877 z"
     id="beak" />
  <path
     inkscape:connector-curvature="0"
     id="eyes"
     d="m 126.78464,58.738773 c -1.84797,-0.006 -3.48509,0.70049 -5.23213,2.17051 -3.41509,2.87362 -3.63907,7.16516 -0.53502,10.2692 4.05789,4.05787 12.34017,1.96213 13.70301,-3.4678 0.71641,-2.85446 -1.54089,-7.14877 -4.31238,-8.20248 -1.3299,-0.50562 -2.5147,-0.76585 -3.62348,-0.76943 z m -53.555875,0.27199 c -4.935782,0.15836 -9.744821,4.73274 -7.527884,10.08489 0.640972,1.54744 2.22716,3.18082 3.754101,3.86505 7.668451,3.43615 14.958757,-4.69977 9.934586,-11.08695 -1.64793,-2.09502 -3.917271,-2.935 -6.160803,-2.86299 z"
     style="fill:#000000;fill-opacity:1;stroke:none" />
</svg>
