<?xml version="1.0" encoding="UTF-8" standalone="no"?>
<svg
   xmlns:dc="http://purl.org/dc/elements/1.1/"
   xmlns:cc="http://creativecommons.org/ns#"
   xmlns:rdf="http://www.w3.org/1999/02/22-rdf-syntax-ns#"
   xmlns:svg="http://www.w3.org/2000/svg"
   xmlns="http://www.w3.org/2000/svg"
   xmlns:sodipodi="http://sodipodi.sourceforge.net/DTD/sodipodi-0.dtd"
   xmlns:inkscape="http://www.inkscape.org/namespaces/inkscape"
   version="1.0"
   width="480.01926"
   height="461.26508"
   viewBox="0 0 384.01541 369.01206"
   preserveAspectRatio="xMidYMid meet"
   id="svg2"
   sodipodi:version="0.32"
   inkscape:version="0.48.4 r9939"
   sodipodi:docname="ibm-penguin.svg"
   inkscape:output_extension="org.inkscape.output.svg.inkscape"
   sodipodi:modified="true">
  <defs
     id="defs15" />
  <sodipodi:namedview
     inkscape:window-height="742"
     inkscape:window-width="1366"
     inkscape:pageshadow="2"
     inkscape:pageopacity="1"
     guidetolerance="10.0"
     gridtolerance="10.0"
     objecttolerance="10.0"
     borderopacity="1.0"
     bordercolor="#666666"
     pagecolor="#000000"
     id="base"
     inkscape:zoom="0.62144379"
     inkscape:cx="172.32472"
     inkscape:cy="250.613"
     inkscape:window-x="0"
     inkscape:window-y="2"
     inkscape:current-layer="svg2"
     showgrid="false"
     inkscape:window-maximized="1"
     borderlayer="true"
     fit-margin-top="0"
     fit-margin-left="0"
     fit-margin-right="0"
     fit-margin-bottom="0" />
  <metadata
     id="metadata4">
    Created by potrace 1.7, written by Peter Selinger 2001-2005
    <rdf:RDF>
  <cc:Work
     rdf:about="">
    <dc:format>image/svg+xml</dc:format>
    <dc:type
       rdf:resource="http://purl.org/dc/dcmitype/StillImage" />
  </cc:Work>
</rdf:RDF>
</metadata>
  <rect
     style="fill:#black"
     id="rect3187"
     width="100%"
     height="100%"
     x="0"
     y="0"
     transform="" />
  <g
     transform="matrix(0.197468,0,0,-0.197468,-51.704264,439.45083)"
     id="g6"
     style="fill:#000000;stroke:none">
    <path
       style="fill:#ffffff"
       d="M 168.03125,26.9375 C 70.685973,26.571193 18.282876,124.3134 119.21875,426.65625 l 9.625,-11.09375 c 5.18354,-5.92404 12.57872,-15.31647 16.28125,-20.5 l 6.6875,-9.625 -0.75,-79.46875 c -0.98734,-86.63909 0.21218,-96.78687 13.5625,-123.1875 8.61801,-17.04235 33.41977,-40.76763 51.34375,-49.84375 45.918,-23.25136 99.79058,-12.24533 135.53125,23.6875 35.44607,35.63666 38.61792,60.71856 43.4375,141.6875 1.35132,22.70216 3.93473,44.17604 6.15625,50.59375 C 755.14864,439.77717 367.3573,27.687556 168.03125,26.9375 z m 127.4375,208.9375 c -13.57593,0 -19.25753,2.71085 -27.15625,11.84375 -5.92404,7.15822 -8.14399,15.30977 -9.625,37.03125 l -0.75,8.375 -17.28125,0 -17.28125,0 -1.21875,-17.03125 c -1.72785,-24.18983 -9.88689,-35.53125 -25.4375,-35.53125 -26.16451,0 -36.27252,31.8276 -20.96875,67.125 l 5.1875,11.84375 -6.6875,5.1875 c -4.19619,3.45569 -6.40625,7.40388 -6.40625,12.09375 0,6.17088 2.48065,8.88293 18.03125,19.25 33.32272,22.21515 38.4985,22.47188 87.125,3.21875 32.08855,-12.58858 47.8738,-16.28321 40.46875,-9.125 -5.18354,4.44303 -71.32359,32.80657 -81.9375,34.78125 -5.67721,0.98734 -13.32043,0.0182 -23.6875,-3.4375 -17.27845,-5.92404 -17.78125,-5.93077 -17.78125,-2.96875 0,1.23417 6.91694,6.91338 15.0625,12.34375 20.98098,14.06959 26.88457,13.57829 66.625,-4.6875 30.85438,-14.31643 41.71875,-17.52729 41.71875,-12.34375 0,2.46835 -51.58982,37.78245 -65.90625,45.1875 -12.58858,6.66455 -23.6816,5.17324 -45.15625,-5.6875 -26.16451,-13.08226 -30.11078,-12.84452 -38.75,1.71875 -3.70253,6.66455 -9.38173,17.05104 -12.34375,23.46875 l -5.4375,11.59375 11.59375,7.40625 c 51.27133,30.90626 147.0029,46.45412 209.09375,7.65625 1.97468,-3.45569 -7.67447,-25.92647 -23.71875,-54.3125 -17.03162,-30.60754 -18.99287,-38.51546 -13.5625,-56.78125 4.9367,-17.03161 5.16731,-15.53918 -3.71875,-25.90625 l -7.625,-8.65625 3.9375,-10.125 c 10.36707,-25.91767 6.64752,-54.54274 -8.65625,-67.625 -5.6772,-4.44303 -10.34495,-6.15308 -17.75,-5.90625 z m -3.78125,29.84375 c 3.58821,-0.24461 5.77532,1.07477 10.1875,4.46875 3.70253,2.96202 7.16891,8.87264 8.15625,13.5625 1.48101,8.14556 -2.24131,24.6879 -6.4375,27.15625 -0.98734,0.74051 -8.12937,-1.48181 -15.78125,-4.9375 C 274.73024,300.29154 274,299.30181 274,291.15625 c 0,-10.86074 5.66971,-22.70649 11.59375,-24.1875 2.54549,-0.69422 4.46275,-1.13882 6.09375,-1.25 z m -97.75,3.15625 c 7.94408,0.0231 15.875,8.83606 15.875,21.03125 0,7.89872 -1.47311,10.38846 -9.125,16.3125 l -8.90625,6.65625 -5.90625,-6.65625 c -7.65188,-8.88606 -7.90505,-25.44503 -0.5,-33.34375 2.34493,-2.53006 5.05064,-3.77977 7.78125,-3.96875 0.25599,-0.0177 0.52499,-0.032 0.78125,-0.0312 z"
       transform="matrix(4.0512893,0,0,-4.0512893,0,2334.5555)"
       id="path8"
       inkscape:connector-curvature="0" />
  </g>
  
</svg>
